<?xml version="1.0" encoding="utf-8"?>
<!-- Generator: Adobe Illustrator 25.0.0, SVG Export Plug-In . SVG Version: 6.00 Build 0)  -->
<svg version="1.1" id="Laag_1" xmlns="http://www.w3.org/2000/svg" xmlns:xlink="http://www.w3.org/1999/xlink" x="0px" y="0px"
	 viewBox="0 0 1815.6 1995.3" style="enable-background:new 0 0 1815.6 1995.3;" xml:space="preserve">
<style type="text/css">
	.st0{fill:#FFFFFF;}
	.st1{enable-background:new    ;}
</style>
<path class="st0" d="M1483.6,488.8c0.1,0,0.2,0,0.3,0c0.3,0.4,0.5,0.9,0.8,1.3c18.4,25.1,38.2,48.9,59.4,71.7
	c16.2,17.4,33,34.1,50.8,49.7c11.3,10,18.4,22.5,21.6,37.2c0.7,3.2,1,6.4,1.5,9.6v9.7c-0.3,2-0.6,3.9-0.9,5.8
	c-4.8,31.6-31.5,56.2-63.5,58.2c-22.6,1.4-41.6-6.4-57-23c-0.3-0.3-0.5-0.9-0.7-1.3l-0.6,0.5c1.8,13.4,5,26.4,10.1,38.9
	c5.2,12.5,11.8,24.2,21.5,34.6c-1.9,1.7-3.8,3.4-5.7,5.1c-0.2,0-0.4,0-0.6,0c-3.5-1.5-6.9-3.2-10.4-4.5c-7.3-2.7-14.8-4.6-22.6-5.2
	c-9.5-0.8-18.7,0.9-27.6,3.9c-4.9,1.7-9.7,3.8-14.5,5.8h-0.3c-1.9-1.8-3.8-3.5-5.6-5.2c18.7-21.1,27.4-45.9,31.6-72.9
	c-0.3,0.1-0.4,0.1-0.5,0.1c-0.3,0.3-0.6,0.6-0.8,0.9c-18.7,18.9-41.3,26.6-67.2,20.4c-28-6.7-45.2-25.1-52-53c-0.7-3-1-6.1-1.5-9.1
	c0-3.5,0-6.9,0-10.3c0.1-0.4,0.2-0.8,0.3-1.2c0.6-3.6,1-7.3,1.9-10.9c3.3-12.9,9.8-23.9,19.5-33c10.9-10.3,22.1-20.3,32.8-30.8
	c23.8-23.5,45.9-48.6,66.5-75C1474.7,500.8,1479.1,494.7,1483.6,488.8L1483.6,488.8z"/>
<g id="HVHF9Y">
	<path class="st0" d="M1281.4,548l0.3,0.2c65.8-57.4,131.7-114.9,197.5-172.3c-0.1-0.1-0.1-0.3-0.2-0.4h-59.8
		c24.8-47.8,49.5-95.4,74.3-143.2c-1,0-1.7,0-2.3,0c-21,0-42,0-63,0c-13.8,0-27.5,0-41.3,0c-1.6,0-2.3,0.5-3.1,1.9
		c-11.5,22.2-23,44.3-34.5,66.5c-16.1,31.1-32.3,62.2-48.4,93.2c-1.9,3.7-3.9,7.5-5.9,11.5h60.3C1330.7,453.2,1306,500.6,1281.4,548
		L1281.4,548z"/>
</g>
<g class="st1">
	<path class="st0" d="M983.6,87.9c-6.4,7.4-15.5,17.4-25.4,19.7c-42.4,10.1-85.5,16.1-129.2,14.7c-6.4-0.2-12.9-0.7-19.3-1.3
		c-0.8,2.8-1.5,5.5-2.3,8.3c-2.1,9.4-3.2,19.3-4.6,28.8c-2.6,17.8-4.8,35.7-6.7,53.7c-3.9,38.3-3.8,76.8-7,115.1
		c-3.8,46-27,90.3-68.5,113.3c-52.3,29-81.3-23.6-57.6-69.4c9.5-18.3,46.7-63,72-47.2c2,1.2-7.9,9.5-9.3,9.9
		c-21.4,6-43.9,11.9-48.2,37.7c-2.9,17.3,2.7,39,18.7,48.5c29.6,17.6,55.3-14.4,61.1-40.4c4.6-21,2.6-43.2,2.7-64.5
		c0.3-49.5,3.8-100,12.8-148.7c2.6-14.2,6.1-26.7,14.2-38.9c1.9-2.8,3.9-5.5,6.1-8.1c-21.9-2.5-43.8-5.2-66-3
		c-18.5,1.8-44.6,5-60.5,15.6c-13,8.7-17.4,30.6-15.8,47.4c1.6,18.1,12.4,39.2,25.7,51.7c6.5,6.1,19.6,16.1,29.2,11.5
		c10.1-4.8,10.4-29.6,11.6-39.2c0.5-4,17.9-20.2,18.8-17.7c13,36.8-32.5,97.1-73.7,88c-59.2-13.2-53.1-90.4-25.5-127.9
		C674.7,94,738.2,75.1,800.2,80.4c66.2,5.7,125.8,5.9,191.2-10.3C997.3,68.7,984.8,86.5,983.6,87.9z"/>
	<path class="st0" d="M1034.4,319.2c-5.1,41.8-46.4,114.2-69.5,81.7c-8-11.2-4.8-34.3-3.7-46.6c1.8-19.2,7.7-36.9,12.7-55.4
		c3.8-14,7.2-29.9-3.5-42c-20.5-23.2-43.3,0.3-58.5,22.8c-1.3,31.3-2.7,62.6-6.4,93.4c-1.4,11.3-35,34.3-35,31
		c-0.1-49.9,6.5-100.7,9.9-150.6c3.4-50.6,5.8-101.4,11.4-151.9c1.1-10,30.3-29.4,30.3-26.8c-0.6,49.5-4.7,99-7.5,148.5
		c-0.9,15.7-1.3,24.7-1.9,40.4c28.1-34,69.4-58.1,84.5-12.3c9.7,29.6-11.3,67.6-10.8,98.4c0.2,13.6,0.1,39,18.5,24.7
		c10.7-8.3,17.6-33.7,24.2-56.4C1029.2,317.5,1034.6,317.8,1034.4,319.2z"/>
	<path class="st0" d="M1192.2,328.6c-21.9,41-37,65.6-81.9,78.9c-23.6,7-54.5,8.4-75.9-5.8c-27.5-18.3-26.3-58.9-15-86.3
		c10.9-26.3,32.1-51.3,54.1-68.9c17.2-13.9,61.7-35.9,81.5-14.7c18.2,19.4-21,58.7-34.6,70.3c-21.7,18.5-48.6,29.2-76.8,31.6
		c1,7,3,13.8,6.2,19.9c15.4,29.3,50.7,32.8,78.1,25.4c26.2-7.1,42.4-22.3,58-51.7C1188.5,322.6,1194.1,325,1192.2,328.6z
		 M1042.9,324.1c3.9-4.8,8.6-9.6,11.7-10.1c22.5-3.7,57.7-8.6,69.8-30.5c14-25.3-18-28.5-35.3-25.4
		C1059.9,263.4,1042.6,294.5,1042.9,324.1z"/>
</g>
<g class="st1">
	<path class="st0" d="M630.7,813c-8,24.1-48.2,97.7-82.1,74.2c-20.3-14.1-25.6-58.2-30.1-80.5c-7.6-37.5-9.2-74.6-8.6-112.7
		c0.7-38.6,1.8-77.1,3.2-115.6c-63.7,19.6-129.5,32.1-193.5,51.7c-27.7,52.4-57.3,103.5-91.9,151.5c-25.9,36.1-63,85.3-108.8,96.8
		c-59.5,14.9-109.5-48-117.6-101C-7.1,721.6,24.4,668.6,68,636c38.9-29.1,102.4-36.9,86.2,31c-1.1,4.8-18.8,20-19,16.9
		c-3.4-47.2-65.9-41.7-82.8-7.4c-15.2,30.9-7,73.2,9.7,101.3c16.1,27,44.5,53.5,77.4,55.2c37.3,2,54.4-34.8,71.9-62.5
		c38-60.4,70.9-123.6,103.1-187.3c-63.2,37.6-168.5,49.4-203.9-31.3c-25.8-58.9-1.4-135.1,34.1-184.9
		c37.5-52.6,92.6-89.7,154.6-106.9c71.1-19.7,189-28,254.4,18.9c10.2,1.7,17.7,9.4,18.9,27.5c4.7,70.8-7.9,145.4-9.9,216.4
		c-1.9,64.2-7.7,130.6-1.1,194.7c3.1,30.2,8.3,61.4,19,89.9c3.4,8.9,8.5,16.7,12.3,25.3c0.6,1.4,2.3,3.4,4,4.9
		C604.8,827.4,634,803,630.7,813z M334.3,544.1c12.9-25.6,25.9-51.2,39.2-76.7c31.8-60.8,64.4-126,122.6-165.9
		c-52.3-4.5-104.3-13.5-157.5-9.2c-59,4.7-142.9,18.8-169.9,78.5c-21.2,46.9-30.4,113.5,6,155.5
		C217.6,575.5,280.5,562.2,334.3,544.1z M511.2,328.1c-11.3-4.7-29.2,4.3-37.4,11.8c-17.1,15.6-29,45.9-39.7,65.7
		c-35.8,66.2-68.1,134.9-102.9,202.2c0,0,0,0,0.1,0c57-20.1,121.2-44.4,182.6-52.3c2.2-55.5,5-110.9,8.3-166.4
		C523.4,370.7,530.5,336.1,511.2,328.1z"/>
	<path class="st0" d="M976.3,620.9c-33.7,55-71.4,106-115,152.4c-5.7,50.1-9.2,101.8-24.2,150c-19.4,62.6-78.8,152.2-142.8,176.2
		c-45.7,17.1-61.3-36.1-62.3-72.2c-1.3-48,21.4-89.1,51.6-124.7c34.6-40.7,79-68,120.4-100.7c4.8-3.8,9.5-7.9,14.2-11.9
		c4.1-30.4,8.3-60.9,12.7-91.3c-18.5,22.5-40.1,42.3-63.5,58.4c-28.5,19.5-69.5,37.8-99.8,11.8c-26.7-22.9-26.9-62.6-20.2-94.2
		c13.1-62.2,62.3-116.8,112.3-153.4c27-19.8,59.3-35.6,93.6-32.5c30.7,2.7,71,18.9,64.8,54.6c-2,11.7-18.1,30.9-29.8,34.1
		c-0.3,0.1-0.6,0.1-1,0.2c0.7,0.4,1.1,1.3,0.8,2.9c-0.7,5.1-1.3,10.2-2,15.2c-0.3,1.9-1.8,5.5-4.2,9.8c-1.3,4.1-2.7,8.3-4.2,12.3
		c-4.1,43.1-8.8,86.2-13.7,129.2c34.5-35.6,65.4-75,92.8-115.9C961.6,624.3,989.7,599,976.3,620.9z M814.4,819.2
		c-3.3,3-6.5,6-9.8,8.9c-26.5,23-56.2,41.8-83.1,64.2c-33.7,28-56.6,104.7-18.9,142.4c62.3,62.3,99.6-126.3,103.2-152.2
		C808.6,861.4,811.5,840.3,814.4,819.2z M882.1,578.7c-29.3,3.5-56.7-23-88.5-22.6c-26.2,0.3-61.4,11.2-77,33.5
		c-16.7,23.8-17.5,72.2-2.7,97c36.5,61.4,104.1,7.3,113.9-44.6c3.3-17.4,18.9-33.9,30.9-45.9C859.6,595.4,873.7,582.9,882.1,578.7z"
		/>
	<path class="st0" d="M1219.6,673.1c-36.3,67.9-61.3,108.6-135.6,130.7c-39,11.6-90.3,14-125.7-9.6c-45.6-30.3-43.5-97.6-24.8-142.9
		c18-43.5,53.2-84.9,89.6-114.1c28.6-22.9,102.2-59.5,135-24.4c30.1,32.1-34.7,97.2-57.2,116.4c-35.9,30.6-80.5,48.3-127.3,52.4
		c1.7,11.6,5,22.8,10.3,32.9c25.5,48.5,83.9,54.3,129.4,42c43.4-11.8,70.2-36.9,96.1-85.6C1213.4,663.2,1222.8,667.1,1219.6,673.1z
		 M972.3,665.7c6.4-7.9,14.2-15.9,19.4-16.7c37.3-6.1,95.5-14.2,115.6-50.5c23.2-41.9-29.9-47.2-58.5-42.1
		C1000.4,565.1,971.8,616.6,972.3,665.7z"/>
</g>
<g class="st1">
	<path class="st0" d="M687.1,930.7c-10.7,12.2-25.6,28.8-42,32.7c-70.2,16.7-141.6,26.6-213.9,24.3c-10.7-0.3-21.3-1.2-31.9-2.2
		c-1.3,4.6-2.5,9.2-3.8,13.8c-3.5,15.6-5.4,31.9-7.6,47.7c-4.3,29.5-8,59.2-11,88.9c-6.5,63.5-6.3,127.2-11.5,190.7
		c-6.3,76.1-44.7,149.6-113.4,187.7c-86.6,48-134.7-39-95.3-115c15.7-30.2,77.3-104.4,119.2-78.2c3.3,2.1-13,15.7-15.4,16.4
		c-35.5,10-72.8,19.7-79.8,62.5c-4.7,28.7,4.4,64.6,30.9,80.4c49,29.2,91.7-23.9,101.2-66.9c7.7-34.7,4.3-71.5,4.4-106.8
		c0.4-81.9,6.2-165.7,21.3-246.3c4.4-23.5,10-44.3,23.5-64.3c3.2-4.7,6.5-9.1,10.1-13.4c-36.3-4.1-72.5-8.6-109.3-5
		c-30.7,3-73.8,8.3-100.3,25.8c-21.6,14.3-28.7,50.8-26.2,78.4c2.7,30,20.6,64.9,42.6,85.7c10.7,10.1,32.5,26.6,48.3,19.1
		c16.7-7.9,17.3-49,19.2-65c0.8-6.6,29.7-33.4,31.1-29.3c21.6,61-53.8,160.9-122.1,145.7c-98.1-21.9-87.9-149.7-42.3-211.9
		c62.7-85.4,167.9-116.8,270.5-108c109.6,9.4,208.4,9.8,316.7-17C709.9,898.8,689.1,928.3,687.1,930.7z"/>
	<path class="st0" d="M698.2,1319.6c-1.5,22.9-8.9,47.7-15.6,64.2c-11.2,27.7-22.6,41.5-47.2,65.8c-31.3,24.9-66.8,27.5-66.3-22.5
		c0.4-37.7,35.2-129.1-0.6-157.7c-18.4-14.7-46.4-9.1-73.4-5.8c-9.6,17.5-22.7,38.6-31.2,57.2c-5.7,12.6-40.1,21.2-22.3-6
		c11.2-17.1,21.3-32,25.4-49.4c-17.9-0.8-33.5-6.8-42.9-26.4c-13.5-28.2,18-58.8,39.3-73.8c32.7-23.1,55-6.3,51.9,33.2
		c-0.4,5.3-1.1,10.4-2.1,15.4c5,1.1,10.3,1.8,16.5,1.9c37.9,0.8,92.5-18.7,99.6,33.6c4.2,30.5,0.2,63.6-4.4,93.8
		c-1.7,11.4-4.6,22.5-5.7,34c-2.3,23.6,2.2,49.7,25.6,31.5c19.8-15.4,28.3-55.3,40-84.3C685.2,1323.7,698.3,1318.3,698.2,1319.6z"/>
	<path class="st0" d="M849.7,1313.5c-10.2,37.2-21.5,61.3-37.5,84.1c-17.8,25.3-68.6,79.6-103.6,75.6c-46-5.3-34-94.6-31.6-123.6
		c2.1-25.8,6.2-51.6,12.8-76.7c3.4-12.8,7.4-25.3,12.2-37.7c0.3-0.7,0.5-1.4,0.8-2.1c6.1-12.5,17-25.4,26.7-33.3
		c3.5-2.9,21.1-18.1,17-3.2c-14.7,53.2-26,114.6-17.7,170.1c5.7,38.3,28.1,58,65,28.3c24.7-19.8,31.9-53.8,45-78.9
		C839.5,1314.4,851.1,1308.3,849.7,1313.5z M702.7,1233.1c-1.3,2.6-2.4,5.1-3.2,7.6C711.2,1204.5,707,1221.2,702.7,1233.1z
		 M708.9,1148.7c0.9-10.4,10.2-20.8,16.4-28.6c6.3-7.9,15-18.1,24.9-21.7c5.7-2.1,11.1,3.6,15.4,7c4.2,3.4,8.2,7.1,12,11
		c2.2,2.2,0.4,6.5-1.1,9.7c-0.6,1.3-1.1,2.3-1.4,2.8c-3.9,8.2-9.7,15.6-15.4,22.7c-5.6,6.9-12.2,14.1-19.3,19.5
		c-0.2,0.1-9.9,7.9-11.8,4.9c-3.1-4.6-6.4-9.1-10-13.3C714.9,1158.6,708.4,1154.4,708.9,1148.7z"/>
	<path class="st0" d="M1028.1,1318.5c-27.6,49.6-168.3,228.2-198.7,95.9c-8-35-2.8-74.4-1.8-110c1.3-47.7,3.6-95.3,6.9-142.9
		c2.9-41.6,6.5-83.2,10.9-124.7c2.6-24.2,4.7-48.8,9.8-72.7c2.2-13.7,14.7-27.1,24-36.4c1.1-1.1,23.9-22.3,23.2-12.5
		c-7.6,108.4-18.8,216.1-21.1,324.9c-0.8,39.2-14.6,115.9,17.4,146.8c46.5,44.9,89.9-27,109.9-62.6
		C1011.8,1318.4,1036.2,1303.9,1028.1,1318.5z"/>
	<path class="st0" d="M1268.8,1324.1c-28.6,21-64.7,33.2-98.5,25.6c-37.5,69.6-120.8,159.1-175.4,67.6
		c-30.3-50.7-13.1-128.7,15.1-176.9c17-29,59.1-80.7,98.1-69.8c18.6-13.8,42.8-21.1,60.3-10.3c44.8,27.8,30.6,118,16.3,157.8
		c-0.5,1.4-1.1,2.8-1.6,4.2c29.9,7.5,62.9,2.7,95.5-13.5C1284.2,1306,1270.9,1322.5,1268.8,1324.1z M1143.5,1338.9
		c-1.6-1-3.3-1.9-4.9-3c-23.4-16-37.8-41.6-46.2-68.1c-5.5-17.3-15.5-42.6-11-61.8c-42.9,6.6-47.5,52.8-49.4,90.5
		c-1.6,32.6,5.7,64.9,30.2,87.9c19.1,17.9,41.6,27,57.9,3.7C1129.7,1374.3,1137.6,1356.8,1143.5,1338.9z M1127.7,1201.1
		c-22-13.5-37.3,0.3-36.4,23.9c0.7,17.3,14.7,37.1,24.7,50.6c10.5,14.1,22.4,25.1,35.2,33.2c0.8-4.6,1.6-9,2.1-13.3
		C1156.5,1267.6,1155.2,1218,1127.7,1201.1z"/>
	<path class="st0" d="M1564.7,1277c-33.7,55-71.4,106-115,152.4c-5.7,50.1-9.2,101.8-24.2,150c-19.4,62.6-78.8,152.2-142.8,176.2
		c-45.7,17.1-61.3-36.1-62.3-72.2c-1.3-48,21.4-89.1,51.6-124.7c34.6-40.7,79-68,120.4-100.7c4.8-3.8,9.5-7.9,14.2-11.9
		c4.1-30.4,8.3-60.9,12.7-91.3c-18.5,22.5-40.1,42.3-63.5,58.4c-28.5,19.5-69.5,37.8-99.8,11.8c-26.7-22.9-26.9-62.6-20.2-94.2
		c13.1-62.2,62.3-116.8,112.3-153.4c27-19.8,59.3-35.6,93.6-32.5c30.7,2.7,71,18.9,64.8,54.6c-2,11.7-18.1,30.9-29.8,34.1
		c-0.3,0.1-0.6,0.1-1,0.2c0.7,0.4,1.1,1.3,0.8,2.9c-0.7,5.1-1.3,10.2-2,15.2c-0.3,1.9-1.8,5.5-4.2,9.8c-1.3,4.1-2.7,8.3-4.2,12.3
		c-4.1,43.1-8.8,86.2-13.7,129.2c34.5-35.6,65.4-75,92.8-115.9C1550.1,1280.5,1578.1,1255.2,1564.7,1277z M1402.8,1475.3
		c-3.3,3-6.5,6-9.8,8.9c-26.5,23-56.2,41.8-83.1,64.2c-33.7,28-56.6,104.7-18.9,142.4c62.3,62.3,99.6-126.3,103.2-152.2
		C1397.1,1517.5,1399.9,1496.4,1402.8,1475.3z M1470.5,1234.9c-29.3,3.5-56.7-23-88.5-22.6c-26.2,0.3-61.4,11.2-77,33.5
		c-16.7,23.8-17.5,72.2-2.7,97c36.5,61.4,104.1,7.3,113.9-44.6c3.3-17.4,18.9-33.9,30.9-45.9C1448,1251.5,1462.1,1239,1470.5,1234.9
		z"/>
	<path class="st0" d="M1809.7,1306.5c-29.4,36.1-62.8,68.1-97.9,98.2c-7,41.6-13.8,83.2-22.3,124.5
		c-15.2,73.9-49.8,158.9-117.9,199.8c-41.4,24.9-77,6-83.5-40.7c-7.4-53.2,24.9-111.1,55.3-152c26.6-35.7,59.6-62.7,95.4-88.7
		c11.1-8.1,21.8-16.4,32.4-24.8c2.8-16.9,5.5-33.9,8.2-50.9c-20.7,28.3-44.6,52.8-67.4,69.7c-32.3,23.9-69,29.2-82.7-17.5
		c-10-33.9-1.8-76,0.2-110.7c1.6-27.9,18.9-90.4-8-108.4c-6-4,19.5-27.9,23.6-29.4c40.5-14.6,29.3,49.9,28.9,74.2
		c-0.6,37.8-14.8,106,7.9,140.2c31.1,46.7,77.8-12,93.6-41.5c4.9-9.2,8.8-18.5,12.1-28c7.1-44.4,14.7-88.7,24.5-132.1
		c2.5-11,36.1-41.2,36-37.5c-0.7,63.1-13.1,126.4-24.7,188.3c-2.9,15.6-5.7,31.2-8.4,46.9c32.2-28.4,63.1-58.2,95-88.5
		C1820.6,1287.4,1813.4,1302,1809.7,1306.5z M1668.2,1440.6c-19.4,15.5-39.1,30.6-58.7,45.8c-43.5,33.6-79.6,80.2-79.9,138
		c-0.2,45.3,43.9,93.4,83.2,43.6c42.1-53.4,42.3-153.3,53.6-216.6C1667,1447.7,1667.6,1444.2,1668.2,1440.6z"/>
</g>
<g class="st1">
	<path class="st0" d="M1286,899.5c-15.6,11.5-35.4,18.1-53.9,14c-20.5,38.1-66.1,87-95.9,37c-16.6-27.7-7.2-70.4,8.3-96.7
		c9.3-15.9,32.3-44.1,53.6-38.2c10.2-7.5,23.4-11.6,33-5.6c24.5,15.2,16.7,64.5,8.9,86.3c-0.3,0.7-0.6,1.5-0.9,2.3
		c16.3,4.1,34.4,1.5,52.2-7.4C1294.4,889.6,1287.1,898.6,1286,899.5z M1217.5,907.6c-0.9-0.5-1.8-1-2.7-1.6
		c-12.8-8.7-20.7-22.8-25.3-37.2c-3-9.5-8.5-23.3-6-33.8c-23.5,3.6-26,28.9-27,49.5c-0.9,17.8,3.1,35.5,16.5,48.1
		c10.5,9.8,22.7,14.8,31.6,2C1209.9,926.9,1214.3,917.4,1217.5,907.6z M1208.8,832.2c-12-7.4-20.4,0.2-19.9,13.1
		c0.4,9.5,8,20.3,13.5,27.7c5.7,7.7,12.2,13.7,19.3,18.2c0.5-2.5,0.9-4.9,1.1-7.3C1224.6,868.6,1223.8,841.4,1208.8,832.2z"/>
	<path class="st0" d="M1367.5,901.4c-5.2,15.2-17.9,12-40.4,13.4c20.6,33.9,30.6,86.3,18.4,126.5c-8.4,27.7-22.9,56.3-44,76.6
		c-5.3,5.1-15.9,16.2-24.5,13.8c-9.1-2.5-10.1-19.6-11-27.3c-5.4-46,1.3-95.2,4.3-141.1c3.4-51.3,5.8-103.1,12.5-154.1
		c1.1-8.4,25.2-24.1,25.1-22.3c-1.3,34.3-3.9,68.6-6.6,102.9c2.9,2.2,5.6,4.6,8.2,7c25.2,7.3,31.7,2.7,55.8,0.5
		C1370.1,896.9,1368.6,897.9,1367.5,901.4z M1298.8,922.6c-3.1,39.9-6,79.8-6.8,119.9c-0.3,14-1,28.6,1.3,42.5
		c0.6,3.4,2.1,17.7,6.5,18.6c6.3,1.4,18.3-24.5,19.2-26.5c4.5-9.5,8-19.6,10.3-29.9C1339.5,1001.4,1329.6,956,1298.8,922.6z"/>
</g>
<path class="st0" d="M1711.5,939.4c-77.1,9-111.6,58.7-121.6,141.4c-8.1-84.2-45-131.7-126.3-134.3c69.6-36.4,112.5-88.4,128.7-156
	C1601.2,880.7,1633.4,933.1,1711.5,939.4L1711.5,939.4z"/>
</svg>
