<?xml version="1.0" encoding="utf-8"?>
<!-- Generator: Adobe Illustrator 25.0.0, SVG Export Plug-In . SVG Version: 6.00 Build 0)  -->
<svg version="1.1" id="Laag_1" xmlns="http://www.w3.org/2000/svg" xmlns:xlink="http://www.w3.org/1999/xlink" x="0px" y="0px"
	 viewBox="0 0 500 500" style="enable-background:new 0 0 500 500;" xml:space="preserve">
<style type="text/css">
	.st0{fill:#FFFFFF;}
</style>
<g>
	<g>
		
			<image style="overflow:visible;enable-background:new    ;" width="883" height="950" xlink:href="BB2F8480.png"  transform="matrix(0.3529 0 0 0.3529 94.2106 75.7963)">
		</image>
	</g>
	<path class="st0" d="M249.9,129.4c0.1,0,0.1,0,0.3,0c0.1,0.3,0.4,0.6,0.6,1c14.1,19.2,29.3,37.4,45.6,54.9
		c12.4,13.3,25.3,26,38.9,38c8.7,7.7,14.1,17.2,16.6,28.4c0.6,2.4,0.7,4.9,1.2,7.4v7.4c-0.3,1.5-0.4,3-0.7,4.4
		c-3.7,24.1-24.1,43.1-48.5,44.5c-17.3,1-31.8-4.9-43.6-17.6c-0.3-0.3-0.4-0.6-0.6-1l-0.4,0.3c1.3,10.2,3.8,20.3,7.7,29.9
		c4,9.6,9,18.5,16.4,26.5c-1.5,1.3-3,2.7-4.3,3.8c-0.1,0-0.3,0-0.4,0c-2.7-1.2-5.3-2.4-8-3.4c-5.6-2.1-11.4-3.6-17.3-4
		c-7.3-0.6-14.4,0.7-21.2,3c-3.7,1.3-7.4,3-11.1,4.4h-0.3c-1.5-1.3-2.8-2.7-4.3-4c14.4-16.1,21-35.2,24.1-55.8c-0.3,0-0.3,0-0.4,0.1
		c-0.3,0.1-0.4,0.4-0.6,0.7C225,313,207.7,319,187.9,314.2c-21.5-5.2-34.6-19.2-39.8-40.7c-0.6-2.2-0.7-4.6-1.2-7c0-2.7,0-5.3,0-8
		c0-0.3,0.1-0.6,0.1-0.9c0.4-2.8,0.7-5.6,1.5-8.3c2.5-9.9,7.5-18.3,14.9-25.3c8.4-7.8,17-15.5,25.2-23.5
		c18.2-18.1,35.2-37.3,50.9-57.4C243.2,138.6,246.5,133.9,249.9,129.4L249.9,129.4z"/>
</g>
<g>
	<g id="HVHF9Y_1_">
		
			<image style="overflow:visible;enable-background:new    ;" width="763" height="983" xlink:href="BB2F8481.png"  transform="matrix(0.3422 0 0 0.3422 -31.3101 94.7069)">
		</image>
	</g>
	<g id="HVHF9Y">
		<path class="st0" d="M20.5,380.1l0.1,0.1c48.9-42.6,97.7-85.2,146.7-128c0-0.1-0.1-0.1-0.1-0.3h-44.3
			c18.4-35.6,36.7-70.9,55.2-106.3c-0.7,0-1.3,0-1.7,0c-15.6,0-31.1,0-46.8,0c-10.2,0-20.4,0-30.7,0c-1.1,0-1.7,0.4-2.3,1.4
			C88.1,163.6,79.4,180,71,196.5c-11.9,23.1-24,46.2-35.9,69.3c-1.4,2.7-2.9,5.6-4.4,8.6h44.8C57.1,309.8,38.8,345,20.5,380.1
			L20.5,380.1z"/>
	</g>
</g>
<g>
	<g>
		
			<image style="overflow:visible;enable-background:new    ;" width="842" height="929" xlink:href="BB2F8487.png"  transform="matrix(0.3853 0 0 0.3853 236.9023 83.9029)">
		</image>
	</g>
	<path class="st0" d="M503,266c-64.6,7.6-93.6,49.2-101.8,118.5C394.4,314,363.4,274.3,295.4,272c58.3-30.6,94.2-74.1,107.8-130.6
		C410.5,216.8,437.6,260.7,503,266L503,266z"/>
</g>
</svg>
